Coordinates
version=1
nRows=41
nColumns=11
inDegrees=no

Units are S.I. units (second, meters, Newtons, ...)
If the header above contains a line with 'inDegrees', this indicates whether rotational values are in degrees (yes) or radians (no).

endheader
time	pelvis_tilt	pelvis_tx	pelvis_ty	hip_flexion_r	knee_angle_r	ankle_angle_r	hip_flexion_l	knee_angle_l	ankle_angle_l	lumbar_extension
105.47	-0.0508506	0.0905681	0.984037	0.419546	-0.0768993	0.0561123	-0.189802	-0.134983	0.318219	0
105.48	-0.0555366	0.0909669	0.985278	0.417906	-0.0808638	0.0598052	-0.184533	-0.148968	0.300088	0
105.49	-0.0527321	0.0935414	0.987173	0.409534	-0.0884932	0.0695941	-0.183265	-0.169712	0.281638	0
105.5	-0.0648626	0.0912251	0.988411	0.416518	-0.0949262	0.076812	-0.163882	-0.193374	0.259418	0
105.51	-0.0499238	0.0952227	0.991484	0.387566	-0.0958745	0.0903636	-0.177677	-0.216031	0.244793	0
105.52	-0.0469066	0.097014	0.993943	0.371036	-0.0919399	0.0966245	-0.175086	-0.239976	0.224728	0
105.53	-0.0448027	0.0986567	0.99627	0.35486	-0.0871193	0.101053	-0.170895	-0.26386	0.206598	0
105.54	-0.0434457	0.10004	0.998353	0.340315	-0.0829875	0.108792	-0.164212	-0.290685	0.183214	0
105.55	-0.0421786	0.101162	1.00029	0.325508	-0.0778308	0.116859	-0.155137	-0.322198	0.145261	0
105.56	-0.0395159	0.102622	1.00221	0.308208	-0.070845	0.123735	-0.145343	-0.355274	0.10772	0
105.57	-0.0358121	0.104401	1.00423	0.287955	-0.0614676	0.128902	-0.136426	-0.388141	0.0730171	0
105.58	-0.0329078	0.105758	1.00604	0.269683	-0.0530896	0.132458	-0.123091	-0.424376	0.0421358	0
105.59	-0.0311515	0.106686	1.00755	0.253362	-0.0449167	0.135778	-0.105243	-0.464151	0.00702845	0
105.6	-0.0294768	0.107624	1.00877	0.238694	-0.0398518	0.143556	-0.0860665	-0.50641	-0.0276402	0
105.61	-0.0273658	0.10851	1.01007	0.224007	-0.0345251	0.148573	-0.0649613	-0.551638	-0.0611484	0
105.62	-0.0246965	0.10937	1.01117	0.208887	-0.0293878	0.152729	-0.0432268	-0.597795	-0.0930403	0
105.63	-0.0216931	0.109954	1.01209	0.194009	-0.025522	0.156417	-0.021105	-0.644398	-0.122803	0
105.64	-0.01941	0.109788	1.01269	0.180791	-0.0230626	0.163711	0.00391804	-0.694008	-0.151749	0
105.65	-0.0202405	0.109482	1.01261	0.171651	-0.0191201	0.173478	0.033958	-0.742324	-0.185774	0
105.66	-0.019098	0.109034	1.01273	0.161187	-0.0175247	0.180234	0.0594206	-0.785086	-0.220919	0
105.67	-0.0197093	0.108004	1.01293	0.152612	-0.0145823	0.18159	0.0864614	-0.826071	-0.241358	0
105.68	-0.0199529	0.107385	1.01304	0.145114	-0.0126103	0.183743	0.113402	-0.867601	-0.235759	0
105.69	-0.0299866	0.104183	1.01238	0.149629	-0.00997144	0.182522	0.155697	-0.912786	-0.209797	0
105.7	0.00759318	0.109418	1.01535	0.0980753	-0.0222328	0.191906	0.127723	-0.942827	-0.178716	0
105.71	-0.0194763	0.103627	1.01366	0.123088	-0.0159763	0.193697	0.187761	-0.972434	-0.139955	0
105.72	-0.030893	0.100053	1.01277	0.130184	-0.0141752	0.197998	0.22996	-1.00414	-0.105336	0
105.73	-0.0166879	0.101684	1.01426	0.104326	-0.0158721	0.211331	0.230796	-1.01981	-0.0782706	0
105.74	-0.0320201	0.0970634	1.01287	0.119785	-0.0184582	0.212074	0.281248	-1.04851	-0.0505061	0
105.75	-0.0331712	0.0954371	1.01289	0.113942	-0.0191794	0.216629	0.305465	-1.06223	-0.0305596	0
105.76	-0.0350723	0.0933215	1.0131	0.111388	-0.0238691	0.219652	0.330295	-1.07165	-0.0120628	0
105.77	-0.0368268	0.0910858	1.01349	0.110877	-0.0321469	0.223305	0.353774	-1.07671	0.0075082	0
105.78	-0.0387214	0.0889447	1.01362	0.109662	-0.0376165	0.228819	0.376571	-1.07789	0.0250377	0
105.79	-0.0409582	0.0865177	1.01348	0.107539	-0.0398356	0.234729	0.398926	-1.07551	0.0416404	0
105.8	-0.0435529	0.0839224	1.01333	0.105695	-0.0424696	0.239637	0.41988	-1.06826	0.0589604	0
105.81	-0.0461963	0.0813505	1.01313	0.103992	-0.0457694	0.242381	0.440705	-1.05902	0.0769978	0
105.82	-0.0488224	0.0789001	1.01284	0.10326	-0.0512407	0.245281	0.461021	-1.0471	0.0929496	0
105.83	-0.0501135	0.0762975	1.01278	0.0992945	-0.0545572	0.248881	0.476787	-1.03108	0.108472	0
105.84	-0.052025	0.0743767	1.01241	0.0970239	-0.0575338	0.254363	0.493905	-1.0133	0.125554	0
105.85	-0.0538785	0.0720395	1.01203	0.0943195	-0.0599041	0.26008	0.509468	-0.991871	0.142028	0
105.86	-0.0555728	0.069742	1.0116	0.0920846	-0.0629151	0.266152	0.523508	-0.967231	0.152596	0
105.87	-0.0437766	0.0715578	1.0122	0.0721909	-0.0647343	0.275808	0.515072	-0.933461	0.165052	0
